C:\Users\israe\Dropbox\PhDWork\ExperimentalData\subject9\055\P9S055W01_filtered35.mot
nRows=8
nColumns=28

name C:\Users\israe\Dropbox\PhDWork\ExperimentalData\subject9\055\P9S055W01_filtered35.mot
datacolumns 28
datarows 8
range 2.5200000000 2.5270000000
endheader
time	ground_force_1_vx	ground_force_1_vy	ground_force_1_vz	ground_force_1_px	ground_force_1_py	ground_force_1_pz	ground_moment_1_mx	ground_moment_1_my	ground_moment_1_mz	ground_force_2_vx	ground_force_2_vy	ground_force_2_vz	ground_force_2_px	ground_force_2_py	ground_force_2_pz	ground_moment_2_mx	ground_moment_2_my	ground_moment_2_mz	ground_force_3_vx	ground_force_3_vy	ground_force_3_vz	ground_force_3_px	ground_force_3_py	ground_force_3_pz	ground_moment_3_mx	ground_moment_3_my	ground_moment_3_mz
        2.5200000000	        0.0000000000	        0.0000000000	       -0.0000000000	        0.1988394961	        0.0000558755	       -0.3004071324	       -0.0000000000	       -0.0000000000	       -0.0000000000	       -0.0000000000	        0.0000000000	       -0.0000000000	        0.2029003516	       -0.0000795827	        0.4543649445	       -0.0000000000	        0.0000000000	        0.0000000000	      -35.2667680539	      644.8206792903	      -58.6971537091	        0.2076431971	        0.0000770316	        1.3583900146	     -126.9226078284	       -0.7922555770	       48.8110280459	
        2.5210000000	        0.0000000000	        0.0000000000	       -0.0000000000	        0.1988394961	        0.0000558755	       -0.3004071324	       -0.0000000000	       -0.0000000000	       -0.0000000000	       -0.0000000000	        0.0000000000	       -0.0000000000	        0.2029003516	       -0.0000795827	        0.4543649445	       -0.0000000000	        0.0000000000	        0.0000000000	      -35.3203607286	      644.3665944092	      -58.2982831464	        0.2076431971	        0.0000770316	        1.3583900146	     -126.8619518263	       -0.8409786914	       48.7941431812	
        2.5220000000	        0.0000000000	        0.0000000000	       -0.0000000000	        0.1988394961	        0.0000558755	       -0.3004071324	       -0.0000000000	       -0.0000000000	       -0.0000000000	       -0.0000000000	        0.0000000000	       -0.0000000000	        0.2029003516	       -0.0000795827	        0.4543649445	       -0.0000000000	        0.0000000000	        0.0000000000	      -35.3652846112	      643.8795071367	      -57.9030293103	        0.2076431971	        0.0000770316	        1.3583900146	     -126.7995799451	       -0.8883181621	       48.7783821427	
        2.5230000000	        0.0000000000	        0.0000000000	       -0.0000000000	        0.1988394961	        0.0000558755	       -0.3004071324	        0.0000000000	       -0.0000000000	        0.0000000000	        0.0000000000	        0.0000000000	       -0.0000000000	        0.2029003516	       -0.0000795827	        0.4543649445	        0.0000000000	        0.0000000000	        0.0000000000	      -35.4022613587	      643.3532989147	      -57.5103306753	        0.2076431971	        0.0000770316	        1.3583900146	     -126.7355552111	       -0.9344770197	       48.7631314436	
        2.5240000000	       -0.0000000000	        0.0000000000	        0.0000000000	        0.1988394961	        0.0000558755	       -0.3004071324	        0.0000000000	        0.0000000000	        0.0000000000	        0.0000000000	        0.0000000000	        0.0000000000	        0.2029003516	       -0.0000795827	        0.4543649445	        0.0000000000	       -0.0000000000	       -0.0000000000	      -35.4329257350	      642.7855493763	      -57.1194882626	        0.2076431971	        0.0000770316	        1.3583900146	     -126.6696143682	       -0.9795538802	       48.7477955154	
        2.5250000000	       -0.0000000000	        0.0000000000	        0.0000000000	        0.1988394961	        0.0000558755	       -0.3004071324	        0.0000000000	        0.0000000000	        0.0000000000	        0.0000000000	        0.0000000000	        0.0000000000	        0.2029003516	       -0.0000795827	        0.4543649445	        0.0000000000	       -0.0000000000	       -0.0000000000	      -35.4597057845	      642.1787823596	      -56.7301873586	        0.2076431971	        0.0000770316	        1.3583900146	     -126.6012777774	       -1.0233848525	       48.7319254947	
        2.5260000000	       -0.0000000000	        0.0000000000	        0.0000000000	        0.1988394961	        0.0000558755	       -0.3004071324	        0.0000000000	        0.0000000000	        0.0000000000	        0.0000000000	        0.0000000000	        0.0000000000	        0.2029003516	       -0.0000795827	        0.4543649445	        0.0000000000	       -0.0000000000	       -0.0000000000	      -35.4847689522	      641.5383152549	      -56.3424690468	        0.2076431971	        0.0000770316	        1.3583900146	     -126.5302655822	       -1.0656376434	       48.7153614365	
        2.5270000000	       -0.0000000000	        0.0000000000	        0.0000000000	        0.1988394961	        0.0000558755	       -0.3004071324	        0.0000000000	        0.0000000000	        0.0000000000	        0.0000000000	        0.0000000000	        0.0000000000	        0.2029003516	       -0.0000795827	        0.4543649445	        0.0000000000	       -0.0000000000	       -0.0000000000	      -35.5095106684	      640.8698097081	      -55.9564657734	        0.2076431971	        0.0000770316	        1.3583900146	     -126.4565676620	       -1.1060028553	       48.6981449808	
